<svg width="32" height="32" viewBox="0 0 32 32" fill="none" xmlns="http://www.w3.org/2000/svg">
<circle cx="16" cy="16" r="16" fill="white"/>
<path d="M16.5 6C13.9192 6 13.597 6.01187 12.5836 6.057C11.5719 6.1045 10.8831 6.26362 10.2775 6.49875C9.65287 6.741 9.12246 7.06638 8.59442 7.59442C8.06638 8.12246 7.74021 8.65208 7.49875 9.2775C7.26362 9.88313 7.10371 10.5719 7.057 11.5836C7.0095 12.597 7 12.9192 7 15.5C7 18.0808 7.01187 18.403 7.057 19.4164C7.1045 20.4273 7.26362 21.1169 7.49875 21.7225C7.73727 22.3565 8.11118 22.9309 8.59442 23.4056C9.06884 23.8892 9.64329 24.2631 10.2775 24.5013C10.8839 24.7356 11.5727 24.8963 12.5836 24.943C13.597 24.9905 13.9192 25 16.5 25C19.0808 25 19.403 24.9881 20.4164 24.943C21.4273 24.8955 22.1169 24.7356 22.7225 24.5013C23.3564 24.2624 23.9307 23.8886 24.4056 23.4056C24.8893 22.9313 25.2633 22.3568 25.5013 21.7225C25.7356 21.1169 25.8963 20.4273 25.943 19.4164C25.9905 18.403 26 18.0808 26 15.5C26 12.9192 25.9881 12.597 25.943 11.5836C25.8955 10.5727 25.7356 9.88233 25.5013 9.2775C25.2626 8.64355 24.8887 8.0692 24.4056 7.59442C23.9315 7.11042 23.357 6.7364 22.7225 6.49875C22.1169 6.26362 21.4273 6.10371 20.4164 6.057C19.403 6.0095 19.0808 6 16.5 6ZM16.5 7.71C19.0357 7.71 19.3381 7.72267 20.3396 7.76621C21.2658 7.80975 21.7685 7.96333 22.1026 8.09475C22.5475 8.26654 22.8626 8.47238 23.1967 8.80408C23.5284 9.13658 23.7342 9.45246 23.906 9.89737C24.0359 10.2315 24.191 10.7342 24.233 11.6604C24.2781 12.6627 24.2884 12.9635 24.2884 15.5C24.2884 18.0365 24.2765 18.3381 24.2298 19.3396C24.1815 20.2658 24.0272 20.7685 23.8965 21.1026C23.742 21.5149 23.4991 21.8883 23.1848 22.1967C22.8778 22.5112 22.5046 22.7535 22.0923 22.906C21.7598 23.0359 21.2492 23.191 20.323 23.233C19.3144 23.2781 19.0175 23.2884 16.4763 23.2884C13.9342 23.2884 13.6373 23.2765 12.6295 23.2298C11.7025 23.1815 11.1919 23.0272 10.8594 22.8965C10.4468 22.7439 10.0738 22.5007 9.76767 22.1848C9.44988 21.8798 9.20615 21.5061 9.05517 21.0923C8.92454 20.7598 8.77096 20.2492 8.72267 19.323C8.68704 18.3255 8.67438 18.0175 8.67438 15.4881C8.67438 12.958 8.68704 12.6492 8.72267 11.6398C8.77096 10.7136 8.92454 10.2038 9.05517 9.87125C9.22142 9.42 9.43438 9.11125 9.76767 8.77796C10.0994 8.44625 10.4089 8.2325 10.8594 8.06704C11.1919 7.93563 11.6914 7.78125 12.6177 7.73375C13.627 7.69813 13.9239 7.68625 16.4644 7.68625L16.5 7.71ZM16.5 10.6217C15.8594 10.6217 15.225 10.7479 14.6332 10.9931C14.0413 11.2382 13.5035 11.5976 13.0506 12.0506C12.5976 12.5035 12.2382 13.0413 11.9931 13.6332C11.7479 14.225 11.6217 14.8594 11.6217 15.5C11.6217 16.1406 11.7479 16.775 11.9931 17.3668C12.2382 17.9587 12.5976 18.4965 13.0506 18.9494C13.5035 19.4024 14.0413 19.7618 14.6332 20.0069C15.225 20.2521 15.8594 20.3783 16.5 20.3783C17.7938 20.3783 19.0346 19.8643 19.9494 18.9494C20.8643 18.0346 21.3783 16.7938 21.3783 15.5C21.3783 14.2062 20.8643 12.9654 19.9494 12.0506C19.0346 11.1357 17.7938 10.6217 16.5 10.6217ZM16.5 18.6667C14.7504 18.6667 13.3333 17.2496 13.3333 15.5C13.3333 13.7504 14.7504 12.3333 16.5 12.3333C18.2496 12.3333 19.6667 13.7504 19.6667 15.5C19.6667 17.2496 18.2496 18.6667 16.5 18.6667ZM22.7114 10.4294C22.7004 10.7244 22.5755 11.0036 22.3629 11.2084C22.1503 11.4132 21.8666 11.5277 21.5714 11.5277C21.2762 11.5277 20.9925 11.4132 20.7799 11.2084C20.5673 11.0036 20.4424 10.7244 20.4314 10.4294C20.4314 10.127 20.5515 9.83706 20.7653 9.62327C20.9791 9.40948 21.2691 9.28938 21.5714 9.28938C21.8738 9.28938 22.1637 9.40948 22.3775 9.62327C22.5913 9.83706 22.7114 10.127 22.7114 10.4294Z" fill="black"/>
</svg>
