<svg width="132" height="132" viewBox="0 0 132 132" fill="none" xmlns="http://www.w3.org/2000/svg">
<path d="M65.7655 48.2826V85.3599H47.7548L31.7388 63.4773V85.3599H17.9521V48.2826H35.9628L51.9788 70.1653V48.2826H65.7655Z" fill="white"/>
<path d="M114.459 48.2826V85.3599H96.4482L80.4322 63.4773V85.3599H66.6455V48.2826H84.6562L100.672 70.1653V48.2826H114.459Z" fill="white"/>
<path d="M66 132C29.6267 132 0 102.373 0 66C0 29.6267 29.6267 0 66 0C102.373 0 132 29.568 132 66C132 102.432 102.373 132 66 132ZM66 0.586667C29.92 0.586667 0.586667 29.92 0.586667 66C0.586667 102.08 29.92 131.413 66 131.413C102.08 131.413 131.413 102.08 131.413 66C131.413 29.92 102.021 0.586667 66 0.586667Z" fill="white"/>
</svg>
