<svg width="23" height="22" viewBox="0 0 23 22" fill="none" xmlns="http://www.w3.org/2000/svg">
<path d="M11.5003 10.9999C14.0316 10.9999 16.0837 8.94789 16.0837 6.41659C16.0837 3.88528 14.0316 1.83325 11.5003 1.83325C8.96902 1.83325 6.91699 3.88528 6.91699 6.41659C6.91699 8.94789 8.96902 10.9999 11.5003 10.9999Z" stroke="white" stroke-width="2"/>
<path d="M16.0831 12.8333H16.4057C17.0759 12.8334 17.7229 13.0783 18.2252 13.5219C18.7276 13.9655 19.0506 14.5773 19.1337 15.2423L19.4921 18.1059C19.5244 18.3639 19.5014 18.6258 19.4247 18.8742C19.348 19.1226 19.2193 19.3518 19.0472 19.5467C18.8751 19.7416 18.6636 19.8977 18.4266 20.0045C18.1896 20.1114 17.9325 20.1666 17.6726 20.1666H5.3269C5.06691 20.1666 4.80989 20.1114 4.57289 20.0045C4.33589 19.8977 4.12432 19.7416 3.95224 19.5467C3.78016 19.3518 3.65149 19.1226 3.57478 18.8742C3.49807 18.6258 3.47508 18.3639 3.50731 18.1059L3.86481 15.2423C3.94795 14.577 4.27128 13.965 4.77399 13.5213C5.27671 13.0777 5.92418 12.833 6.59465 12.8333H6.9164" stroke="white" stroke-width="2" stroke-linecap="round" stroke-linejoin="round"/>
</svg>
